# xmcd
#
# Track frame offsets:
#	150
#	11358
#	23244
#	34710
#	52168
#	63392
#	79802
#	97590
#	110594
#	124952
#	137675
#	155542
#	176464
#
# Disc length: 2611 seconds
#
# Revision: 0
# Processed by: cddbd v1.5.1PL2 Copyright (c) Steve Scherf et al.
# Submitted via: dBpowerAMP V4.0
#
DISCID=a20a310d
DTITLE=William Lee Ellis - Conqueroo
DYEAR=2003
DGENRE=Blues
TTITLE0=She Conquered the Conqueroo
TTITLE1=My Religion Too
TTITLE2=Where Would I Go
TTITLE3=How the Mighty Have Fallen
TTITLE4=Never Be the Child
TTITLE5=Northern Lights
TTITLE6=Everything Changes But You
TTITLE7=King of the Mountain
TTITLE8=Maybellene
TTITLE9=Honey Take Your Time
TTITLE10=Rider On Your Soul
TTITLE11=Black Sea Blues
TTITLE12=Rose Hill
EXTD=
EXTT0=
EXTT1=
EXTT2=
EXTT3=
EXTT4=
EXTT5=
EXTT6=
EXTT7=
EXTT8=
EXTT9=
EXTT10=
EXTT11=
EXTT12=
PLAYORDER=
